<svg xmlns="http://www.w3.org/2000/svg" xml:space="preserve" width="163.137" height="200.499" viewBox="0 0 43.163 53.049">
  <style>
    :root {
      --part-color: #840000;
      --source-text-color: #006464;
      --path-color: #840000;
      --label-text-color: #0f0f0f;
      --pin-text-color: #a90000;
      --text-color: #0000c2;
      --part-rect-color: #ffffc2;
    }
    @media (prefers-color-scheme: dark) {
      :root {
        --part-color: lightgray;
        --source-text-color: lightgreen;
        --path-color: lightgray;
        --label-text-color: white;
        --pin-text-color: lightcoral;
        --text-color: white;
        --part-rect-color: transparent;
      }
    }
  </style>
  <g transform="translate(-92.533 -130.296)">
    <path d="M116.332 170.688h-4.064M116.332 172.212h-4.064" style="fill:none;stroke:var(--part-color);stroke-width:.508;stroke-linecap:round"/>
    <path d="M114.3 172.466v2.794M114.3 170.434v-2.794" style="fill:none;stroke:var(--part-color);stroke-width:.1524;stroke-linecap:round"/>
    <rect width="2.032" height="5.08" x="99.314" y="149.86" rx="0" style="fill:none;stroke:var(--part-color);stroke-width:.254;stroke-linecap:round"/>
    <path d="M100.33 149.86v-1.27M100.33 154.94v1.27M119.38 177.8v1.27h1.27l-1.27 1.27-1.27-1.27h1.27" style="fill:none;stroke:var(--part-color);stroke-width:.1524;stroke-linecap:round"/>
    <g class="stroked-text" style="fill:none;stroke:var(--source-text-color);stroke-width:.1524;stroke-linecap:round">
      <path stroke="none" d="M118.142 181.63v-.148l.542-.001v.477l-.055.041-.056.037-.056.031-.057.027-.033.013-.067.022-.068.015-.068.01-.07.002-.069-.003-.067-.009-.065-.014-.062-.02-.06-.025-.019-.01-.055-.033-.05-.038-.051-.051-.038-.05-.033-.053-.005-.01-.027-.06-.021-.06-.016-.065-.01-.066-.005-.069v-.023l.003-.07.008-.068.013-.066.02-.064.024-.063.01-.02.03-.058.038-.052.04-.047.055-.046.06-.039.057-.027.06-.02.063-.017.066-.01.069-.005h.024l.067.003.065.008.06.014.058.02.06.027.056.037.048.044.012.015.037.054.028.057.023.065.01.03-.153.043-.022-.062-.027-.055-.023-.035-.044-.044-.054-.033-.024-.011-.062-.02-.067-.011-.047-.002-.063.003-.064.01-.063.019-.01.004-.06.03-.053.04-.025.024-.038.05-.032.057-.01.022-.02.061-.016.065-.01.066-.002.07.002.063.008.068.013.064.022.065.014.03.033.055.045.053.053.043.04.023.057.025.067.02.069.01.046.002.069-.004.067-.012.06-.019.02-.008.06-.027.055-.031.043-.033v-.248zM118.924 182.137v-1.29h.174l.672 1.013v-1.013h.162v1.29h-.174l-.671-1.014v1.014zM120.72 180.848l.068.004.063.008.026.005.066.02.059.028.053.036.01.008.047.046.041.052.035.058.028.065.02.06.014.064.01.068.006.071v.043l-.002.063-.006.067-.01.064-.016.067-.02.06-.027.06-.034.058-.007.01-.041.051-.048.046-.027.02-.056.031-.06.023-.037.01-.065.013-.064.007-.062.003H120.208v-1.141h.17v.993h.272l.067-.002.064-.007.063-.014.005-.001.058-.025.052-.037.005-.005.04-.052.032-.058.021-.055.017-.061.01-.069.006-.067v-.053l-.001-.073-.007-.067-.014-.07-.02-.06-.023-.043-.04-.056-.043-.045-.054-.036-.023-.01-.063-.016-.062-.007-.067-.003H120.207v-.15h.442z" style="fill:var(--source-text-color);fill-opacity:1;fill-rule:evenodd;stroke:none"/>
    </g>
    <rect width="17.78" height="20.32" x="105.41" y="143.51" rx="0" style="fill:var(--part-rect-color);stroke:var(--part-color);stroke-width:.254;stroke-linecap:round"/>
    <path d="M114.3 143.51v-2.54" style="fill:none;stroke:var(--part-color);stroke-width:.1524;stroke-linecap:round"/>
    <g class="stroked-text" style="fill:none;stroke:var(--source-text-color);stroke-width:.1524;stroke-linecap:round">
      <path stroke="none" d="m114.827 147.265-1.29.496v-.183l.938-.333.062-.021.06-.02.065-.019.024-.007-.066-.02-.06-.019-.059-.02-.026-.01-.938-.346v-.173l1.29.501zM114.37 145.533l.043-.169.064.019.059.023.064.033.057.039.05.044.029.034.038.054.03.058.022.063.014.067.007.07v.026l-.002.062-.008.07-.014.066-.02.06-.03.062-.01.016-.04.054-.049.048-.055.041-.062.036-.04.018-.06.023-.063.018-.065.014-.066.009-.067.004h-.023l-.074-.003-.07-.008-.066-.013-.063-.02-.059-.023-.019-.01-.062-.036-.055-.042-.048-.05-.041-.054-.02-.034-.031-.063-.023-.066-.016-.069-.007-.07-.002-.043.005-.07.01-.065.017-.061.03-.066.038-.06.047-.054.055-.046.053-.033.059-.028.065-.022.039.167-.059.021-.058.03-.053.038-.038.04-.034.057-.022.066-.009.066v.024l.002.062.013.065.02.06.035.06.044.05.052.042.06.033.036.014.06.017.062.013.062.008.064.002.07-.002.066-.007.062-.012.066-.018.023-.008.058-.027.055-.039.045-.046.025-.036.03-.058.02-.06.01-.063.002-.037-.005-.068-.016-.063-.026-.057-.037-.052-.047-.046-.057-.037-.058-.026-.066-.02zM114.37 144.25l.043-.169.064.019.059.023.064.033.057.039.05.045.029.033.038.054.03.058.022.063.014.067.007.07v.026l-.002.062-.008.07-.014.066-.02.06-.03.062-.01.016-.04.054-.049.048-.055.041-.062.036-.04.018-.06.023-.063.018-.065.014-.066.009-.067.004h-.023l-.074-.003-.07-.008-.066-.013-.063-.02-.059-.023-.019-.01-.062-.036-.055-.042-.048-.05-.041-.054-.02-.034-.031-.063-.023-.066-.016-.069-.007-.07-.002-.043.005-.07.01-.065.017-.061.03-.066.038-.06.047-.054.055-.046.053-.033.059-.028.065-.022.039.167-.059.021-.058.03-.053.038-.038.04-.034.057-.022.066-.009.066v.024l.002.062.013.065.02.06.035.06.044.05.052.042.06.033.036.014.06.017.062.013.062.007.064.002.07-.002.066-.007.062-.012.066-.018.023-.008.058-.027.055-.039.045-.046.025-.036.03-.058.02-.06.01-.063.002-.037-.005-.068-.016-.063-.026-.057-.037-.052-.047-.046-.057-.037-.058-.026-.066-.02z" style="fill:var(--source-text-color);fill-opacity:1;fill-rule:evenodd;stroke:none"/>
    </g>
    <g class="stroked-text" style="fill:none;stroke:var(--pin-text-color);stroke-width:.1524;stroke-linecap:round">
      <path stroke="none" d="m113.533 141.825.064.017.059.027.054.04.029.026.043.055.033.06.022.07.01.063.003.058-.004.068-.012.063-.023.068-.035.06-.038.046-.051.045-.057.034-.062.023-.068.012-.04.002-.067-.005-.06-.015-.06-.028-.022-.015-.047-.045-.037-.055-.024-.059-.006-.021-.029.061-.04.053-.034.03-.06.031-.061.015-.04.001-.068-.006-.062-.018-.056-.032-.05-.043-.043-.055-.03-.062-.016-.062-.007-.068v-.022h.128l.008.063.028.058.022.028.052.038.063.02h.025l.065-.008.059-.027.027-.023.037-.053.018-.06.002-.034h.13l.007.065.021.059.036.05.009.01.049.038.062.025.064.01h.007l.066-.009.06-.021.004-.002.052-.037.04-.05.004-.008.025-.061.009-.066v-.009l-.007-.066-.02-.059-.04-.056-.004-.005-.05-.038-.062-.027-.065-.009h-.007l-.067.007-.059.023-.052.037-.009.009-.038.05-.025.059-.01.065v.014h-.13v-.004l-.007-.063-.028-.058-.022-.027-.052-.038-.06-.018-.03-.002-.062.008-.058.028-.027.023-.039.053-.019.063-.002.033h-.129l.005-.069.014-.063.024-.058.038-.058.018-.02.051-.045.057-.032.063-.019.068-.006.064.007.062.022.03.018.05.046.036.057.017.04.025-.063.033-.053.045-.048.02-.016.057-.033.063-.02.062-.008h.022z" style="fill:var(--pin-text-color);fill-opacity:1;fill-rule:evenodd;stroke:none"/>
    </g>
    <path d="M119.38 163.83v2.54" style="fill:none;stroke:var(--part-color);stroke-width:.1524;stroke-linecap:round"/>
    <g class="stroked-text" style="fill:none;stroke:var(--source-text-color);stroke-width:.1524;stroke-linecap:round">
      <path stroke="none" d="M119.4 162.586h-.148l-.001-.542h.477l.041.055.037.056.031.056.027.057.013.033.022.067.015.068.01.068.002.07-.003.069-.009.067-.014.064-.02.063-.025.06-.01.019-.033.055-.038.05-.051.051-.05.038-.054.033-.01.005-.058.027-.062.021-.064.016-.066.01-.069.005h-.024l-.069-.003-.068-.008-.066-.014-.064-.019-.063-.024-.02-.01-.058-.031-.052-.037-.047-.04-.046-.055-.039-.06-.027-.058-.02-.06-.017-.062-.01-.066-.005-.069v-.024l.003-.067.008-.065.014-.06.02-.058.027-.06.037-.057.044-.047.015-.012.054-.037.057-.028.065-.023.03-.01.043.153-.062.022-.056.027-.034.023-.044.044-.033.054-.011.024-.02.062-.011.067-.002.047.003.063.01.064.019.063.004.01.03.06.04.053.024.024.05.039.057.032.022.01.061.022.065.015.066.01.07.002.063-.002.068-.008.064-.013.065-.022.03-.014.055-.033.053-.045.043-.053.023-.04.025-.058.02-.066.01-.069.002-.047-.004-.068-.012-.067-.019-.06-.008-.02-.027-.06-.032-.055-.032-.043h-.248zM119.907 161.804h-1.29v-.174l1.013-.672h-1.013v-.162h1.29v.174l-1.014.671h1.014zM119.317 159.463l.068.006.064.01.066.017.061.02.06.027.058.033.01.007.051.042.046.048.02.027.031.056.023.059.01.038.013.064.007.064.003.063V160.52h-1.29v-.17h1.141v-.273l-.002-.067-.007-.064-.014-.063v-.005l-.025-.057-.038-.052-.005-.005-.051-.041-.058-.032-.055-.02-.062-.017-.068-.011-.067-.005-.053-.001-.074.002-.066.007-.07.014-.06.02-.044.023-.056.039-.044.044-.036.054-.01.023-.017.062-.007.063-.003.066V160.35h-.149v-.271l.001-.07.004-.069.008-.062.005-.027.02-.065.028-.06.036-.052.008-.01.047-.048.052-.04.058-.035.064-.029.06-.02.065-.014.067-.01.072-.005h.042z" style="fill:var(--source-text-color);fill-opacity:1;fill-rule:evenodd;stroke:none"/>
    </g>
    <g class="stroked-text" style="fill:none;stroke:var(--pin-text-color);stroke-width:.1524;stroke-linecap:round">
      <path stroke="none" d="M118.91 164.929v.157h-1.006l.042.047.037.052.031.05.032.055.028.057.022.053h-.159l-.028-.056-.035-.06-.038-.056-.042-.052-.005-.006-.043-.046-.048-.043-.052-.037-.026-.014v-.101z" style="fill:var(--pin-text-color);fill-opacity:1;fill-rule:evenodd;stroke:none"/>
    </g>
    <circle cx="104.775" cy="157.48" r=".635" style="fill:none;stroke:var(--part-color);stroke-width:.1524;stroke-linecap:round"/>
    <path d="M104.14 157.48h-1.27" style="fill:none;stroke:var(--part-color);stroke-width:.1524;stroke-linecap:round"/>
    <g class="stroked-text" style="fill:none;stroke:var(--source-text-color);stroke-width:.1524;stroke-linecap:round">
      <path stroke="none" d="M106.381 158.007v-1.141h-.421v-.15h1.014v.15h-.424v1.141zM107.782 156.718l.063.005.063.01.063.019.057.03.048.043.037.05.028.057.018.06.007.065v.013l-.005.066-.016.061-.032.062-.034.044-.05.043-.062.034-.064.023-.063.014-.033.005.055.03.047.034.045.046.044.053.038.053.013.02.223.349h-.213l-.17-.268-.035-.054-.036-.053-.038-.054-.013-.016-.043-.05-.043-.036-.057-.028-.02-.006-.064-.006h-.227v.57h-.169v-1.146h.17v.431h.363l.068-.002.063-.008.05-.013.058-.032.042-.047.027-.06.007-.057-.01-.065-.027-.055-.029-.032-.054-.034-.065-.019-.063-.007H107.144v-.144h.567z" style="fill:var(--source-text-color);fill-opacity:1;fill-rule:evenodd;stroke:none"/>
    </g>
    <g class="stroked-text" style="fill:none;stroke:var(--pin-text-color);stroke-width:.1524;stroke-linecap:round" transform="translate(0 -.53)">
      <path stroke="none" d="M104.545 156.861v.15h-.845l.004-.063.014-.047.027-.06.032-.053.04-.052.004-.005.045-.05.048-.047.05-.044.054-.047.008-.007.05-.042.056-.049.05-.046.052-.05.047-.053.026-.033.036-.056.026-.06.012-.063v-.012l-.009-.066-.028-.058-.03-.035-.05-.036-.06-.022-.063-.006-.067.007-.063.024-.052.04-.039.056-.021.061-.008.065v.015l-.162-.017.009-.066.016-.06.026-.063.036-.054.037-.04.051-.038.058-.028.065-.02.062-.008.055-.002.066.004.07.013.064.023.056.033.035.03.042.047.035.06.022.065.008.063v.019l-.005.062-.015.062-.01.028-.03.057-.037.054-.038.046-.049.051-.048.047-.049.044-.055.05-.041.034-.05.043-.048.042-.049.044-.035.034-.04.049-.026.037z" style="fill:var(--pin-text-color);fill-opacity:1;fill-rule:evenodd;stroke:none"/>
    </g>
    <path d="M123.19 153.67h2.54" style="fill:none;stroke:var(--part-color);stroke-width:.1524;stroke-linecap:round"/>
    <g class="stroked-text" style="fill:none;stroke:var(--source-text-color);stroke-width:.1524;stroke-linecap:round">
      <path stroke="none" d="m122.054 152.89.063.009.06.015.067.025.064.033.06.04.052.047.046.053.04.06.02.037.024.058.02.061.016.064.01.067.003.069v.024l-.001.068-.007.064-.012.062-.018.067-.01.024-.027.062-.033.057-.039.053-.045.049.057.038.056.032.06.03.044.02-.05.118-.06-.025-.06-.03-.06-.036-.052-.035-.043-.033-.063.031-.067.024-.069.015-.062.008-.053.002-.064-.003-.061-.01-.07-.017-.066-.026-.054-.029-.058-.04-.053-.047-.046-.053-.04-.06-.02-.036-.026-.059-.02-.061-.016-.064-.01-.067-.004-.07v-.023h.174l.003.075.01.07.014.065.021.058.034.063.042.055.048.046.054.036.058.027.063.017.068.008h.024l.066-.004.064-.015.04-.015-.055-.035-.057-.027-.055-.018.041-.119.062.02.064.029.058.033.052.038.006.005.043-.046.036-.054.028-.06.021-.066.014-.073.006-.064.001-.05-.002-.067-.008-.063-.015-.067-.021-.062-.006-.015-.03-.056-.04-.054-.048-.046-.037-.026-.059-.031-.063-.021-.067-.011-.039-.002-.068.005-.065.014-.06.023-.054.032-.051.041-.016.016-.042.054-.034.062-.021.06-.015.065-.01.071-.002.078h-.175l.003-.07.008-.067.014-.065.019-.063.024-.061.009-.02.03-.055.043-.06.048-.05.055-.045.043-.027.063-.032.067-.024.07-.016.063-.008.054-.002z" style="fill:var(--source-text-color);fill-opacity:1;fill-rule:evenodd;stroke:none"/>
    </g>
    <g class="stroked-text" style="fill:none;stroke:var(--pin-text-color);stroke-width:.1524;stroke-linecap:round">
      <path stroke="none" d="m124.04 152.864.158-.021.015.061.024.058.037.055.015.016.053.035.061.02.045.003.066-.007.06-.022.052-.038.01-.009.04-.051.025-.06.01-.065.001-.014-.007-.064-.024-.062-.04-.053-.053-.04-.062-.023-.064-.007-.065.007-.046.01.017-.148.025.002.067-.006.062-.018.052-.027.046-.042.028-.06.006-.057-.01-.064-.032-.058-.017-.019-.053-.036-.064-.017-.034-.002-.064.008-.06.026-.028.023-.04.05-.026.061-.013.06-.157-.028.016-.065.023-.059.035-.058.044-.05.013-.011.054-.038.06-.027.067-.016.063-.005h.01l.064.004.066.015.063.025.055.035.046.042.033.045.03.06.014.062.003.042-.007.065-.022.06-.015.026-.043.05-.052.039-.036.019.06.019.056.032.048.043.012.015.033.056.02.064.009.065v.023l-.006.071-.017.067-.03.062-.04.056-.029.03-.048.04-.062.036-.068.025-.063.013-.068.004-.07-.005-.066-.015-.06-.023-.055-.033-.028-.024-.044-.046-.035-.052-.026-.057-.017-.063z" style="fill:var(--pin-text-color);fill-opacity:1;fill-rule:evenodd;stroke:none"/>
    </g>
    <circle cx="123.825" cy="147.32" r=".635" style="fill:none;stroke:var(--part-color);stroke-width:.1524;stroke-linecap:round"/>
    <path d="M124.46 147.32h1.27" style="fill:none;stroke:var(--part-color);stroke-width:.1524;stroke-linecap:round"/>
    <g class="stroked-text" style="fill:none;stroke:var(--source-text-color);stroke-width:.1524;stroke-linecap:round">
      <path stroke="none" d="m122.177 146.558.063.005.063.01.064.019.056.03.049.043.037.05.028.057.017.06.007.065v.013l-.004.066-.017.061-.032.062-.034.044-.05.043-.062.034-.064.023-.062.014-.034.005.056.03.046.034.046.046.044.053.038.053.012.02.223.349h-.213l-.17-.268-.035-.054-.036-.053-.038-.054-.012-.016-.043-.05-.043-.036-.058-.028-.02-.006-.063-.006h-.227v.57h-.17V146.7h.17v.431h.364l.067-.002.063-.008.051-.013.058-.032.042-.047.026-.06.008-.057-.009-.065-.027-.055-.03-.032-.054-.034-.065-.019-.063-.007H121.54v-.144h.568z" style="fill:var(--source-text-color);fill-opacity:1;fill-rule:evenodd;stroke:none"/>
    </g>
    <g class="stroked-text" style="fill:none;stroke:var(--pin-text-color);stroke-width:.1524;stroke-linecap:round">
      <path stroke="none" d="M124.7 146.393h.173v.144h-.173v.313h-.157v-.313h-.555v-.144h.555v-.58l-.4.58h-.155l.584-.833h.128z" style="fill:var(--pin-text-color);fill-opacity:1;fill-rule:evenodd;stroke:none"/>
    </g>
    <path d="M114.3 163.83v2.54" style="fill:none;stroke:var(--part-color);stroke-width:.1524;stroke-linecap:round"/>
    <g class="stroked-text" style="fill:none;stroke:var(--source-text-color);stroke-width:.1524;stroke-linecap:round">
      <path stroke="none" d="m114.37 162.272.043-.17.064.019.059.023.064.033.057.039.05.045.029.033.038.054.03.058.022.063.014.067.007.071v.025l-.002.063-.008.07-.014.065-.02.06-.03.062-.01.016-.04.054-.049.048-.055.042-.062.035-.04.018-.06.023-.063.019-.065.013-.066.009-.067.004h-.023l-.074-.003-.07-.008-.066-.013-.063-.019-.059-.024-.019-.01-.062-.036-.055-.042-.048-.049-.041-.055-.02-.034-.031-.063-.023-.066-.016-.068-.007-.072-.002-.041.005-.07.01-.066.017-.061.03-.066.038-.06.047-.054.055-.046.053-.033.059-.028.065-.022.039.167-.059.022-.058.029-.053.038-.038.04-.034.057-.022.066-.009.066v.024l.002.062.013.066.02.059.035.06.044.05.052.042.06.033.036.014.06.017.062.013.062.007.064.003.07-.002.066-.007.062-.011.066-.019.023-.008.058-.027.055-.039.045-.046.025-.036.03-.058.02-.06.01-.063.002-.036-.005-.069-.016-.063-.026-.057-.037-.052-.047-.045-.057-.038-.058-.026-.066-.02zM114.827 161.536l-1.29.495v-.183l.938-.333.062-.021.06-.02.065-.019.024-.007-.066-.02-.06-.018-.059-.02-.026-.01-.938-.346v-.173l1.29.5z" style="fill:var(--source-text-color);fill-opacity:1;fill-rule:evenodd;stroke:none"/>
    </g>
    <g class="stroked-text" style="fill:none;stroke:var(--pin-text-color);stroke-width:.1524;stroke-linecap:round">
      <path stroke="none" d="m113.493 165.52-.014-.165.063-.014.059-.025.051-.038.008-.008.037-.054.02-.061.004-.046-.009-.067-.025-.06-.043-.054-.01-.01-.054-.038-.063-.026-.063-.012-.052-.003-.065.005-.065.016-.055.029-.032.026-.042.051-.026.061-.011.063v.022l.006.064.023.061.006.012.038.052.048.04.007.005-.02.147-.655-.124v-.636h.149v.51l.344.07-.033-.059-.024-.06-.014-.06-.005-.063.006-.07.016-.067.028-.06.04-.056.027-.03.054-.045.06-.034.067-.022.063-.011.055-.003.064.004.07.013.066.023.06.032.042.03.053.049.042.055.03.062.02.068.009.062v.04l-.002.062-.013.069-.022.061-.031.056-.028.036-.046.044-.052.035-.058.025-.065.017z" style="fill:var(--pin-text-color);fill-opacity:1;fill-rule:evenodd;stroke:none"/>
    </g>
    <path d="M105.41 160.02h-2.54" style="fill:none;stroke:var(--part-color);stroke-width:.1524;stroke-linecap:round"/>
    <g class="stroked-text" style="fill:none;stroke:var(--source-text-color);stroke-width:.1524;stroke-linecap:round">
      <path stroke="none" d="M106.381 160.547v-1.141h-.421v-.15h1.014v.15h-.424v1.141zM107.147 160.547v-1.29h.169v.536h.665v-.536h.17v1.29h-.17v-.605h-.665v.605zM109.065 159.258l.063.005.062.01.064.019.057.03.048.043.037.05.028.057.018.06.007.065v.013l-.005.066-.016.061-.032.062-.034.044-.05.043-.062.034-.065.023-.062.014-.033.006.055.03.047.034.045.046.044.053.038.053.013.02.223.349h-.214l-.169-.268-.035-.054-.036-.053-.038-.054-.013-.016-.043-.05-.043-.036-.057-.028-.02-.006-.064-.006h-.227v.57h-.169v-1.146h.17v.431h.363l.068-.002.063-.008.05-.013.058-.032.042-.047.027-.06.007-.057-.01-.065-.027-.055-.029-.032-.054-.034-.065-.019-.063-.007H108.427v-.144h.567z" style="fill:var(--source-text-color);fill-opacity:1;fill-rule:evenodd;stroke:none"/>
    </g>
    <g class="stroked-text" style="fill:none;stroke:var(--pin-text-color);stroke-width:.1524;stroke-linecap:round">
      <path stroke="none" d="m104.235 158.264.066.015.06.025.052.037.006.005.043.047.034.056.024.063.013.063.001.009-.156.013-.018-.065-.027-.056-.014-.019-.052-.042-.06-.023-.045-.004-.062.008-.06.026-.01.007-.047.043-.04.054-.03.059-.02.064-.014.069-.007.07-.003.065v.023l.042-.05.048-.042.048-.029.063-.024.065-.013.044-.002.067.006.062.017.058.027.053.04.028.027.043.053.032.06.022.068.01.062.004.056-.004.066-.013.064-.02.062-.015.032-.033.055-.043.051-.05.042-.017.011-.06.03-.063.017-.069.008h-.014l-.07-.004-.067-.016-.06-.025-.057-.036-.05-.046-.016-.017-.042-.061-.028-.06-.023-.07-.013-.063-.006-.044h.169l.006.067.017.063.012.029.032.055.045.047.019.013.06.029.062.01h.009l.064-.01.059-.028.047-.043.038-.057.022-.061.01-.063.002-.042-.004-.064-.015-.064-.03-.06-.02-.025-.049-.041-.06-.028-.063-.009h-.007l-.064.008-.062.026-.05.04-.005.004-.04.054-.024.063-.01.065v.023h-.17l-.004-.026-.006-.074-.002-.08.001-.068.004-.064.01-.08.012-.075.017-.067.022-.062.032-.067.04-.058.047-.05.054-.04.06-.029.065-.019.07-.009h.026z" style="fill:var(--pin-text-color);fill-opacity:1;fill-rule:evenodd;stroke:none"/>
    </g>
    <path d="M105.41 147.32h-2.54" style="fill:none;stroke:var(--part-color);stroke-width:.1524;stroke-linecap:round"/>
    <g class="stroked-text" style="fill:none;stroke:var(--source-text-color);stroke-width:.1524;stroke-linecap:round">
      <path stroke="none" d="m106.567 146.558.068.004.063.008.026.005.066.02.059.028.053.036.01.008.047.046.041.052.035.058.028.065.02.06.014.064.01.068.005.071.001.043-.002.063-.006.067-.01.064-.016.067-.021.06-.027.06-.033.058-.007.01-.041.051-.048.046-.027.02-.056.031-.06.023-.037.01-.065.013-.064.007-.062.003H106.055v-1.141h.17v.993h.272l.067-.002.064-.007.063-.014.005-.001.058-.025.051-.037.005-.005.042-.052.031-.058.021-.055.016-.061.011-.069.005-.067.001-.053-.002-.073-.007-.067-.014-.07-.02-.06-.022-.043-.04-.056-.043-.045-.054-.036-.023-.01-.063-.016-.062-.007-.067-.003H106.054v-.15h.441zM107.368 147.847v-1.29h.169v1.29zM107.775 147.425l.16-.015.01.065.021.06.021.04.041.048.052.037.036.019.063.022.061.012.066.005h.007l.063-.003.064-.011.043-.014.058-.03.048-.043.005-.006.029-.057.008-.054-.011-.063-.024-.043-.047-.042-.059-.03-.01-.004-.062-.02-.067-.019-.066-.016-.032-.008-.063-.016-.063-.018-.06-.02-.061-.027-.058-.036-.046-.042-.033-.042-.027-.057-.015-.06-.003-.044.007-.066.02-.062.029-.054.04-.05.048-.04.06-.034.012-.006.061-.021.066-.015.068-.006.04-.001.07.002.064.01.06.014.057.02.057.03.054.04.044.05.012.016.031.058.02.063.01.067.002.014-.163.013-.012-.064-.025-.06-.042-.054-.01-.008-.053-.033-.061-.019-.063-.009h-.045l-.063.002-.062.01-.064.022-.035.022-.043.046-.024.062-.002.029.012.063.038.051.058.034.064.023.06.017.073.018.06.014.066.017.065.018.065.022.027.011.058.031.054.04.046.05.007.01.03.058.018.063.005.062-.006.063-.017.061-.029.059-.007.011-.042.053-.05.045-.056.034-.02.01-.064.024-.06.015-.064.01-.058.001-.063-.002-.069-.007-.063-.012-.066-.02-.03-.011-.056-.03-.055-.04-.047-.049-.026-.037-.033-.06-.022-.065-.012-.062z" style="fill:var(--source-text-color);fill-opacity:1;fill-rule:evenodd;stroke:none"/>
    </g>
    <g class="stroked-text" style="fill:none;stroke:var(--pin-text-color);stroke-width:.1524;stroke-linecap:round">
      <path stroke="none" d="M103.73 145.728v-.149h.828v.123l-.046.052-.045.058-.038.053-.038.057-.038.062-.037.066-.036.068-.034.068-.03.07-.029.07-.025.07-.023.072-.008.028-.016.062-.014.064-.012.066-.01.068-.006.07-.002.024h-.162l.004-.07.007-.064.011-.07.013-.06.014-.064.01-.04.02-.067.02-.066.024-.066.027-.065.028-.064.031-.063.013-.025.034-.06.034-.059.035-.055.035-.052.043-.058.045-.054z" style="fill:var(--pin-text-color);fill-opacity:1;fill-rule:evenodd;stroke:none"/>
    </g>
    <rect width="2.032" height="5.08" x="99.314" y="139.7" rx="0" style="fill:none;stroke:var(--part-color);stroke-width:.254;stroke-linecap:round"/>
    <path d="M100.33 139.7v-1.27M100.33 144.78v1.27M113.538 134.62l.762-1.27M114.3 135.89v-2.54M114.3 133.35l.762 1.27" style="fill:none;stroke:var(--part-color);stroke-width:.1524;stroke-linecap:round"/>
    <g class="stroked-text" style="fill:none;stroke:var(--source-text-color);stroke-width:.1524;stroke-linecap:round">
      <path stroke="none" d="m112.928 132.607-.496-1.29h.184l.332.938.022.062.02.06.018.065.007.024.02-.066.019-.06.02-.059.01-.026.346-.938h.173l-.5 1.29zM114.66 132.15l.17.043-.02.064-.022.059-.033.064-.04.057-.044.05-.034.029-.053.038-.059.03-.062.022-.067.014-.072.006h-.024l-.063-.002-.07-.008-.065-.014-.06-.02-.062-.03-.017-.01-.053-.04-.048-.049-.042-.055-.036-.062-.018-.04-.023-.06-.018-.063-.013-.065-.01-.066-.003-.067v-.023l.002-.074.008-.07.014-.066.018-.063.025-.059.009-.019.036-.062.043-.055.049-.048.054-.041.035-.02.063-.031.066-.023.068-.016.071-.008h.042l.07.003.065.01.062.018.066.03.06.038.053.047.046.055.033.053.028.059.022.064-.167.04-.021-.059-.03-.058-.038-.054-.04-.037-.057-.034-.065-.022-.067-.009h-.023l-.063.003-.065.013-.06.02-.06.035-.05.044-.042.052-.032.06-.014.036-.018.06-.012.062-.008.062-.002.064.002.07.007.066.011.062.019.066.008.023.027.058.038.055.047.045.035.025.058.03.06.02.064.01h.036l.068-.004.063-.016.058-.026.052-.037.045-.047.037-.057.026-.058.02-.066zM115.943 132.15l.17.043-.02.064-.023.059-.032.064-.04.057-.044.05-.033.029-.055.038-.058.03-.062.022-.067.014-.072.006h-.024l-.063-.002-.07-.008-.065-.014-.06-.02-.062-.03-.017-.01-.053-.04-.048-.049-.042-.055-.036-.062-.018-.04-.023-.06-.018-.063-.013-.065-.01-.066-.003-.067v-.023l.002-.074.008-.07.014-.066.018-.063.025-.059.009-.019.036-.062.043-.055.049-.048.055-.041.034-.02.063-.031.066-.023.068-.016.071-.008h.042l.07.003.065.01.062.018.066.03.06.038.053.047.046.055.033.053.028.059.022.064-.167.04-.021-.059-.03-.058-.038-.054-.04-.037-.057-.034-.066-.022-.066-.009h-.024l-.062.003-.065.013-.06.02-.06.035-.05.044-.042.052-.032.06-.014.036-.018.06-.012.062-.007.062-.002.064.002.07.007.066.011.062.018.066.009.023.027.058.038.055.047.045.035.025.058.03.06.02.064.01h.036l.068-.004.063-.016.058-.026.052-.037.045-.047.037-.057.026-.058.02-.066z" style="fill:var(--source-text-color);fill-opacity:1;fill-rule:evenodd;stroke:none"/>
    </g>
    <path d="M102.362 164.338h-4.064M102.362 165.862h-4.064" style="fill:none;stroke:var(--part-color);stroke-width:.508;stroke-linecap:round"/>
    <path d="M100.33 166.116v2.794M100.33 164.084v-2.794M100.33 177.8v1.27h1.27l-1.27 1.27-1.27-1.27h1.27" style="fill:none;stroke:var(--part-color);stroke-width:.1524;stroke-linecap:round"/>
    <g class="stroked-text" style="fill:none;stroke:var(--source-text-color);stroke-width:.1524;stroke-linecap:round">
      <path stroke="none" d="M99.092 181.63v-.148l.542-.001v.477l-.055.041-.056.037-.056.031-.058.027-.033.013-.066.022-.068.015-.068.01-.07.002-.069-.003-.067-.009-.065-.014-.062-.02-.06-.025-.019-.01-.055-.033-.05-.038-.051-.051-.038-.05-.033-.053-.005-.01-.027-.06-.021-.06-.016-.065-.01-.066-.005-.069v-.023l.003-.07.008-.068.014-.066.019-.064.025-.063.009-.02.032-.058.036-.052.042-.047.054-.046.06-.039.057-.027.06-.02.063-.017.066-.01.069-.005h.023l.068.003.064.008.061.014.058.02.06.027.056.037.048.044.012.015.037.054.028.057.023.065.009.03-.153.043-.021-.062-.028-.055-.023-.035-.044-.044-.054-.033-.023-.011-.062-.02-.067-.011-.048-.002-.062.003-.064.01-.064.019-.01.004-.06.03-.053.04-.024.024-.038.05-.033.057-.01.022-.02.061-.016.065-.01.066-.002.07.002.063.007.068.014.064.022.065.013.03.033.055.045.053.053.043.04.023.058.025.066.02.069.01.047.002.068-.004.067-.012.06-.019.02-.008.06-.027.055-.031.043-.033v-.248zM99.874 182.137v-1.29h.174l.672 1.013v-1.013h.162v1.29h-.174l-.671-1.014v1.014zM101.67 180.848l.068.004.063.008.026.005.066.02.059.028.053.036.01.008.047.046.041.052.035.058.028.065.02.06.014.064.01.068.006.071v.043l-.002.063-.006.067-.01.064-.016.067-.02.06-.027.06-.034.058-.007.01-.041.051-.048.046-.027.02-.056.031-.06.023-.037.01-.065.013-.064.007-.062.003H101.158v-1.141h.17v.993h.272l.067-.002.064-.007.063-.014.005-.001.057-.025.053-.037.004-.005.042-.052.031-.058.021-.055.017-.061.01-.069.006-.067v-.053l-.001-.073-.007-.067-.014-.07-.02-.06-.023-.043-.04-.056-.043-.045-.054-.036-.023-.01-.063-.016-.062-.007-.067-.003H101.157v-.15h.442z" style="fill:var(--source-text-color);fill-opacity:1;fill-rule:evenodd;stroke:none"/>
    </g>
    <g class="stroked-text" style="fill:none;stroke:var(--label-text-color);stroke-width:.1524;stroke-linecap:round">
      <path stroke="none" d="m128.08 151.798.062.009.06.014.068.025.064.034.059.04.052.047.046.053.04.06.02.037.025.058.02.062.015.064.01.067.004.07v.024l-.003.072-.008.069-.014.066-.019.063-.025.06-.01.02-.032.055-.042.058-.05.05-.055.044-.043.026-.064.031-.067.024-.068.015-.07.008-.042.001-.066-.003-.064-.009-.06-.015-.06-.022-.055-.027-.018-.011-.059-.041-.052-.048-.046-.054-.039-.06-.02-.036-.024-.058-.023-.069-.015-.07-.008-.062-.002-.06h.174l.003.07.01.066.014.06.027.067.035.06.036.044.048.046.054.036.057.027.063.017.066.008h.023l.07-.004.064-.014.06-.024.055-.034.05-.043.016-.016.042-.055.033-.063.021-.058.015-.064.01-.07.002-.075-.002-.067-.008-.063-.015-.067-.021-.063-.006-.015-.03-.055-.04-.055-.048-.046-.037-.026-.059-.031-.063-.021-.067-.011-.039-.002-.065.004-.062.013-.059.022-.055.03-.052.04-.016.015-.044.053-.035.064-.022.063-.016.07-.008.063-.004.067v.036h-.175v-.002l.003-.078.008-.073.013-.07.02-.064.023-.06.03-.057.034-.052.04-.047.056-.052.061-.044.066-.034.07-.026.075-.016.064-.007.05-.002zM129.675 151.814h.17v.745l-.002.07-.005.064-.009.068-.015.069-.013.037-.03.061-.041.054-.046.043-.04.028-.062.031-.06.02-.069.014-.063.006h-.045l-.065-.001-.07-.008-.064-.014-.066-.024-.03-.014-.052-.035-.05-.047-.04-.057-.02-.042-.022-.064-.013-.066-.008-.062-.005-.069-.001-.062v-.744h.169v.746l.002.07.005.069.01.064.014.046.03.054.045.048.031.02.062.027.064.014.059.003.066-.003.068-.012.065-.022.057-.039.01-.01.035-.053.022-.062.013-.065.007-.063.003-.071v-.015zM130.444 153.105v-1.142h-.421v-.149h1.013v.15h-.423v1.14zM131.754 151.815l.063.003.064.008.062.015.058.023.038.022.048.042.04.054.015.029.023.062.013.06.003.053-.005.07-.015.064-.025.06-.035.055-.024.03-.054.044-.058.029-.07.021-.068.012-.076.006-.05.001h-.328v.526h-.169v-1.141h.17v.466h.33l.067-.003.066-.01.06-.022.04-.027.04-.049.022-.06.007-.066-.007-.063-.022-.059-.012-.019-.043-.046-.06-.03h-.003l-.066-.01-.065-.002h-.524v-.149h.483zM133.228 151.814h.17v.745l-.001.07-.005.064-.01.068-.015.069-.012.037-.03.061-.042.054-.046.043-.04.028-.061.031-.061.02-.068.014-.064.006h-.045l-.065-.001-.07-.008-.064-.014-.065-.024-.03-.014-.053-.035-.05-.047-.04-.057-.02-.042-.021-.064-.014-.066-.008-.062-.005-.069-.001-.062v-.744h.169v.746l.001.07.005.069.01.064.014.046.03.054.046.048.03.02.062.027.065.014.058.003.066-.003.068-.012.065-.022.057-.039.01-.01.035-.053.022-.062.013-.065.007-.063.003-.071v-.015zM133.997 153.105v-1.142h-.42v-.149h1.013v.15h-.423v1.14z" style="fill:var(--label-text-color);fill-opacity:1;fill-rule:evenodd;stroke:none"/>
    </g>
    <g class="stroked-text" style="fill:none;stroke:var(--text-color);stroke-width:.1524;stroke-linecap:round">
      <path stroke="none" d="m94.727 140.915.094.007.094.014.095.028.086.045.073.065.055.075.042.085.026.091.011.097v.02l-.008.099-.024.091-.048.093-.052.065-.075.065-.093.051-.096.035-.093.021-.05.008.083.046.07.05.068.07.066.079.057.08.019.028.334.524h-.32l-.253-.401-.054-.082-.054-.08-.057-.08-.019-.024-.064-.074-.065-.055-.086-.042-.03-.01-.095-.008-.046-.001h-.294v.856h-.254v-1.72h.254v.648h.545l.102-.004.094-.012.077-.021.086-.048.063-.07.04-.09.011-.085-.014-.097-.042-.083-.043-.048-.081-.051-.098-.028-.094-.01-.04-.001h-.86v-.216h.85zM96.482 143.274h-.235v-1.508l-.072.062-.078.056-.074.047-.083.047-.086.042-.079.033v-.238l.084-.042.09-.053.085-.057.078-.063.01-.008.068-.065.064-.071.055-.079.022-.038h.151z" style="fill:var(--text-color);fill-opacity:1;fill-rule:evenodd;stroke:none"/>
    </g>
    <g class="stroked-text" style="fill:none;stroke:var(--text-color);stroke-width:.1524;stroke-linecap:round">
      <path stroke="none" d="m94.727 151.328.094.008.094.015.095.028.086.045.073.065.055.075.042.085.026.091.011.097v.02l-.008.099-.024.091-.048.093-.052.065-.075.065-.093.051-.096.035-.093.021-.05.008.083.046.07.05.068.07.066.079.057.08.019.028.334.524h-.32l-.253-.401-.054-.082-.054-.08-.057-.08-.019-.024-.064-.074-.065-.055-.086-.042-.03-.01-.095-.008-.046-.001h-.294v.856h-.254v-1.72h.254v.648h.545l.102-.004.094-.012.077-.021.086-.048.063-.07.04-.09.011-.085-.014-.097-.042-.083-.043-.048-.081-.051-.098-.028-.094-.01-.04-.001h-.86v-.216h.85zM96.833 153.465v.223h-1.268l.007-.093.02-.07.04-.09.049-.08.06-.078.007-.008.067-.074.073-.071.073-.066.082-.07.013-.01.075-.063.084-.074.075-.07.077-.075.072-.078.039-.05.053-.084.039-.09.018-.096v-.016l-.014-.1-.042-.088-.044-.05-.076-.056-.09-.032-.095-.01-.1.01-.094.035-.078.061-.059.083-.032.093-.012.096v.024l-.243-.026.014-.1.024-.09.04-.094.053-.08.056-.06.077-.057.087-.043.097-.029.093-.013.082-.004.1.006.106.02.094.034.084.05.053.044.063.071.053.09.032.098.013.094v.029l-.008.093-.023.092-.016.043-.044.085-.056.081-.056.07-.073.076-.073.07-.073.067-.083.073-.061.053-.075.063-.073.064-.072.066-.053.051-.06.073-.039.056z" style="fill:var(--text-color);fill-opacity:1;fill-rule:evenodd;stroke:none"/>
    </g>
    <g class="stroked-text" style="fill:none;stroke:var(--text-color);stroke-width:.1524;stroke-linecap:round">
      <path stroke="none" d="m95.135 165.53.254.065-.028.095-.035.089-.05.096-.058.085-.067.075-.05.044-.08.056-.088.045-.094.033-.1.022-.107.01h-.037l-.095-.002-.105-.012-.097-.021-.09-.03-.094-.046-.024-.015-.08-.061-.072-.072-.063-.083-.054-.094-.027-.058-.034-.092-.028-.094-.02-.096-.013-.1-.006-.101v-.034l.004-.11.012-.106.02-.1.028-.093.036-.089.014-.028.055-.093.064-.083.073-.072.083-.062.05-.03.096-.046.098-.035.103-.023.107-.012.062-.002.105.005.098.016.092.026.1.044.09.058.08.07.069.083.05.08.041.088.033.096-.25.06-.032-.089-.044-.087-.058-.08-.06-.056-.085-.052-.099-.032-.1-.013-.035-.001-.093.005-.098.018-.09.032-.089.052-.076.066-.063.077-.049.09-.02.054-.027.09-.019.093-.011.094-.004.095.004.105.01.099.017.093.028.099.013.035.04.086.058.083.07.069.053.037.087.044.09.03.095.015.055.002.102-.008.094-.024.087-.039.078-.055.068-.07.056-.086.039-.087.03-.1zM96.482 166.642h-.235v-1.508l-.072.062-.078.056-.074.047-.083.047-.086.042-.079.033v-.238l.084-.042.09-.053.085-.057.078-.063.01-.008.068-.065.064-.071.055-.079.022-.038h.151z" style="fill:var(--text-color);fill-opacity:1;fill-rule:evenodd;stroke:none"/>
    </g>
    <path d="M114.3 167.64v-1.27M114.3 176.53v-1.27M114.3 176.53h5.08M119.38 166.37v10.16M100.33 160.02v1.27M100.33 157.48v2.54M100.33 157.48h2.54M100.33 160.02h2.54M100.33 156.21v1.27M100.33 147.32v1.27M100.33 147.32h2.54M100.33 147.32v-1.27M114.3 135.89v1.27M114.3 139.7v-2.54M114.3 137.16h-13.97M100.33 137.16v1.27M127 139.7v7.62M114.3 139.7H127M127 147.32h-1.27M125.73 153.67h8.89M114.3 139.7v1.27M100.33 168.91v8.89M119.38 177.8v-1.27" style="fill:none;stroke:var(--path-color);stroke-width:.1524;stroke-linecap:round"/>
    <circle cx="119.38" cy="176.53" r=".457" style="fill:var(--path-color);fill-opacity:1;stroke:var(--path-color);stroke-width:.1524;stroke-linecap:round"/>
    <circle cx="100.33" cy="157.48" r=".457" style="fill:var(--path-color);fill-opacity:1;stroke:var(--path-color);stroke-width:.1524;stroke-linecap:round"/>
    <circle cx="100.33" cy="160.02" r=".457" style="fill:var(--path-color);fill-opacity:1;stroke:var(--path-color);stroke-width:.1524;stroke-linecap:round"/>
    <circle cx="100.33" cy="147.32" r=".457" style="fill:var(--path-color);fill-opacity:1;stroke:var(--path-color);stroke-width:.1524;stroke-linecap:round"/>
    <circle cx="114.3" cy="137.16" r=".457" style="fill:var(--path-color);fill-opacity:1;stroke:var(--path-color);stroke-width:.1524;stroke-linecap:round"/>
    <circle cx="114.3" cy="139.7" r=".457" style="fill:var(--path-color);fill-opacity:1;stroke:var(--path-color);stroke-width:.1524;stroke-linecap:round"/>
  </g>
</svg>
